<?xml version="1.0" encoding="utf-8"?>
<svg xmlns="http://www.w3.org/2000/svg" width="424px" height="209px">
<radialGradient id="SVGID1" cx="106.9786" cy="935.4044" r="2.9614" gradientTransform="matrix(23.757 0 0 -32.8993 -2464.7524 30879.293)" gradientUnits="userSpaceOnUse">
	<stop  offset="0" style="stop-color:#FFFFFF"/>
	<stop  offset="0.2708" style="stop-color:#FFFFFF"/>
	<stop  offset="0.4595" style="stop-color:#FAFAFA"/>
	<stop  offset="0.6858" style="stop-color:#ECECEB"/>
	<stop  offset="0.9303" style="stop-color:#D5D4D3"/>
	<stop  offset="1" style="stop-color:#CDCCCB"/>
</radialGradient>
<path fill="url(#SVGID1)" d="M124.1,2.06c-38.12,0-84.68,31.17-106.7,66.55C-10.79,113.92-1.74,171.1,37.66,196.36c22.73,14.55,50.6,15.28,75.52,4.57c-3.5-1.53-6.91-3.35-10.22-5.47c-39.38-25.23-48.44-82.42-20.2-127.75c15.17-24.39,42.01-46.76,69.72-58.3c-8.4-5.07-18.08-7.34-28.36-7.35H124.1z"/>
<radialGradient id="SVGID2" cx="109.1612" cy="935.6146" r="2.9614" gradientTransform="matrix(25.4629 0 0 -32.1431 -2628.6248 30178.0449)" gradientUnits="userSpaceOnUse">
	<stop  offset="0" style="stop-color:#F7ED1A"/>
	<stop  offset="0.19" style="stop-color:#F7ED1A"/>
	<stop  offset="1" style="stop-color:#EF7C29"/>
</radialGradient>
<path fill="url(#SVGID2)" d="M197.61,1.43c-1.61,0-3.24,0.06-4.88,0.16c-11.91,0.8-24.49,4.45-36.77,10.13c-23.59,10.92-46.1,29.39-60.78,49.87c-1.42,2-2.77,4.02-4.04,6.05c-28.2,45.33-19.15,102.52,20.24,127.78c2.01,1.28,4.07,2.45,6.15,3.52c9.89,5.06,20.55,7.75,31.41,8.24c-1.04,0.06-2.08,0.1-3.13,0.12c0.96,0.08,1.92,0.14,2.89,0.18c12.98,0.56,26.22-2.05,38.7-7.51c-3.01-1.4-5.95-3-8.81-4.83c-10.47-6.72-18.78-15.7-24.83-26.12c-16.7-28.73-16.1-68.38,4.61-101.65c5.11-8.21,11.56-16.2,18.91-23.62c14.21-14.35,31.82-26.58,49.86-34.27c-0.02-0.01-0.04-0.02-0.05-0.03C218.42,3.86,208.35,1.43,197.61,1.43z"/>
<radialGradient id="SVGID3" cx="111.5017" cy="937.2745" r="2.9614" gradientTransform="matrix(25.4822 0 0 -26.9713 -2600.3708 25383.3516)" gradientUnits="userSpaceOnUse">
	<stop  offset="0" style="stop-color:#FFFFFF"/>
	<stop  offset="0.2708" style="stop-color:#FFFFFF"/>
	<stop  offset="0.4595" style="stop-color:#FAFAFA"/>
	<stop  offset="0.6858" style="stop-color:#ECECEB"/>
	<stop  offset="0.9303" style="stop-color:#D5D4D3"/>
	<stop  offset="1" style="stop-color:#CDCCCB"/>
</radialGradient>
<path fill="url(#SVGID3)" d="M268.57,0.96c-12.37,0.83-25.46,4.73-38.2,10.8c-19.06,9.08-37.33,23.04-51.2,38.95c-4.67,5.35-8.85,10.92-12.39,16.6c-19.12,30.73-21.11,66.87-8.15,94.85c6.16,13.3,15.68,24.76,28.37,32.91c1.58,1.01,3.18,1.95,4.8,2.83c10.27,5.56,21.41,8.46,32.76,8.93c31.66,1.39,64.87-16.15,84.81-48.18c28.22-45.31,32.93-124.62-6.45-149.83c-8.61-5.57-18.62-8.03-29.3-8.03h-0.01C271.95,0.78,270.27,0.84,268.57,0.96z"/>
<path fill="#002D6A" d="M421.9,86.1c0,2.51-2.03,4.54-4.54,4.54c-2.51,0-4.54-2.03-4.54-4.54s2.03-4.54,4.54-4.54C419.87,81.56,421.9,83.59,421.9,86.1z M417.36,80.46c-3.12,0-5.64,2.53-5.64,5.64s2.53,5.64,5.64,5.64c3.12,0,5.64-2.53,5.64-5.64S420.47,80.46,417.36,80.46z M416.08,85.71h0.99c0.5,0,0.85-0.07,1.06-0.2c0.21-0.13,0.31-0.34,0.31-0.64c0-0.27-0.1-0.46-0.31-0.6c-0.21-0.13-0.52-0.2-0.94-0.2h-1.11V85.71z M414.87,89.12v-5.99h2.84c0.7,0,1.21,0.17,1.53,0.49c0.32,0.33,0.48,0.73,0.48,1.2c0,0.46-0.13,0.84-0.4,1.11c-0.27,0.28-0.67,0.47-1.21,0.57c0.25,0.09,0.44,0.22,0.59,0.38c0.15,0.16,0.38,0.5,0.69,1.03l0.7,1.2h-1.5l-0.5-0.97c-0.3-0.57-0.57-0.97-0.79-1.18c-0.23-0.21-0.53-0.31-0.89-0.31h-0.32v2.45H414.87z M170.94,82.5l-1.53,4.77c1.63-1.9,3.38-3.31,5.24-4.3c1.83-0.94,3.82-1.46,5.95-1.46c2.66-0.02,4.65,0.61,6.02,1.86c1.36,1.29,2.01,2.89,2,4.8c-0.01,1.9-0.62,5.15-1.76,9.71l-9.26,36.31l-15.51,0.09l9.15-35.88c0.92-3.55,1.35-5.74,1.34-6.54c-0.02-0.76-0.57-1.15-1.59-1.13c-1.06,0-1.84,0.47-2.37,1.36c-0.5,0.9-1.27,3.32-2.25,7.2l-8.94,35.03l-15.54,0.15l13.21-51.83L170.94,82.5z M224.5,108.84l-20.02,0.15l-2.85,11.21c-0.59,2.35-0.83,3.86-0.68,4.54c0.15,0.68,0.71,1.01,1.63,0.99c1.17,0,2.04-0.45,2.65-1.37c0.63-0.89,1.27-2.63,1.91-5.22l1.75-6.84l14.76-0.12l-0.97,3.81c-0.84,3.2-1.64,5.64-2.49,7.39c-0.84,1.74-2.24,3.57-4.19,5.5c-1.93,2-4.14,3.48-6.65,4.47c-2.48,0.99-5.41,1.5-8.8,1.55c-3.26,0-6.01-0.42-8.28-1.37c-2.27-0.94-3.87-2.26-4.84-3.93c-0.95-1.67-1.44-3.5-1.5-5.53c0-2,0.47-4.94,1.45-8.77l3.88-15.12c1.12-4.51,2.64-8.09,4.5-10.73c1.89-2.63,4.38-4.65,7.45-6.06c3.11-1.41,6.42-2.14,9.97-2.16c4.32-0.05,7.7,0.75,10.1,2.45c2.39,1.65,3.8,3.83,4.23,6.58c0.44,2.78,0.01,6.68-1.26,11.69L224.5,108.84z M211.13,100.59l0.97-3.83c0.69-2.71,0.99-4.42,0.88-5.22c-0.09-0.77-0.54-1.15-1.37-1.15c-1.1,0.02-1.85,0.35-2.25,1.01c-0.42,0.66-1.02,2.49-1.76,5.41l-0.96,3.81L211.13,100.59z M286.45,81.51l-19.46,51.87h-16.44c0.02-0.21-0.17-0.31-0.15-0.57c0.69-6.23,1.75-14.37,3.11-24.4c-1.73,4.61-3.56,9.21-5.49,13.87l-4.45,11.29l-16.67,0.16l6.65-51.75l13.26-0.14c-0.22,1.34-1.59,11.29-4.19,29.77c0.74-2,4.46-11.9,11.13-29.82l12.67-0.09l-4.38,29.77c2.74-8.79,6.46-18.72,11.12-29.87L286.45,81.51z M319.25,107.9l-20,0.19l-2.88,11.19c-0.59,2.35-0.82,3.86-0.67,4.54c0.18,0.68,0.71,0.99,1.63,0.96c1.17,0,2.05-0.42,2.67-1.36c0.64-0.89,1.26-2.63,1.92-5.2l1.74-6.84l14.74-0.14l-0.98,3.81c-0.83,3.2-1.64,5.69-2.47,7.41c-0.84,1.71-2.24,3.55-4.19,5.5c-1.95,1.98-4.16,3.46-6.66,4.47c-2.46,0.99-5.41,1.5-8.78,1.53c-3.28,0.05-6.01-0.42-8.31-1.36c-2.25-0.94-3.88-2.26-4.8-3.93c-0.96-1.67-1.47-3.51-1.5-5.51c-0.01-2.02,0.46-4.91,1.43-8.8L286,99.24c1.13-4.49,2.67-8.09,4.54-10.7c1.85-2.65,4.34-4.63,7.43-6.09c3.08-1.39,6.39-2.11,9.96-2.16c4.31,0,7.68,0.8,10.1,2.44c2.38,1.65,3.82,3.86,4.25,6.61c0.41,2.77,0.01,6.65-1.27,11.69L319.25,107.9z M305.89,99.64l0.95-3.81c0.69-2.7,1.01-4.45,0.91-5.22c-0.07-0.8-0.54-1.17-1.4-1.17c-1.08,0-1.84,0.35-2.24,1.04c-0.41,0.68-1,2.47-1.74,5.38l-0.99,3.81L305.89,99.64z M366.49,80.71l-10.18,39.93c-1.37,5.41-2.41,8.89-3.07,10.47c-0.64,1.58-1.95,3.27-3.87,5.03c-1.91,1.74-4.33,3.12-7.22,4.09c-2.88,0.96-6.34,1.43-10.31,1.43c-4.96,0.07-8.72-0.75-11.27-2.42c-1.66-1.11-2.19-2.38-2.31-4.77v-5.36l15.3-0.04c-0.6,2.32-0.07,3.5,1.6,3.48c1.15-0.02,2.05-0.37,2.62-1.08c0.56-0.75,1.14-2.21,1.71-4.47l1.03-3.99c-1.67,1.24-3.29,2.21-4.94,2.82c-1.61,0.63-3.23,0.96-4.86,0.98c-2.8,0-4.94-0.52-6.46-1.64c-1.51-1.13-2.39-2.63-2.59-4.49c-0.18-1.86,0.13-4.49,1-7.92l4.82-18.81c1.27-4.89,3.03-8.44,5.33-10.63c2.29-2.16,5.23-3.25,8.75-3.29c1.96,0,3.62,0.38,5,1.18c1.39,0.8,2.54,1.98,3.39,3.6l2.1-3.93L366.49,80.71z M347.48,94.59c0.58-2.37,0.84-3.88,0.72-4.54c-0.1-0.64-0.6-0.97-1.51-0.97c-0.9,0-1.64,0.4-2.19,1.15c-0.58,0.73-1.15,2.24-1.69,4.39l-4.46,17.42c-0.58,2.33-0.83,3.83-0.73,4.52c0.1,0.68,0.62,1.04,1.5,1.04c1.02-0.03,1.81-0.45,2.33-1.27c0.52-0.85,1.18-2.73,1.9-5.69L347.48,94.59z M407.3,80.37l-10.17,39.95c-1.38,5.41-2.41,8.84-3.06,10.47c-0.67,1.55-1.93,3.22-3.88,5.01c-1.92,1.76-4.35,3.13-7.22,4.07c-2.88,0.94-6.33,1.46-10.33,1.48c-4.96,0.05-8.71-0.75-11.23-2.45c-2.58-1.69-3.25-5.03-2.08-10.06l15.04-0.14c-0.57,2.35-0.07,3.53,1.61,3.5c1.16-0.02,2.03-0.38,2.63-1.1c0.55-0.71,1.13-2.21,1.72-4.47l0.99-4c-1.63,1.27-3.26,2.19-4.91,2.85c-1.61,0.63-3.25,0.97-4.86,0.97c-2.81,0.02-4.96-0.49-6.49-1.65c-1.49-1.13-2.37-2.63-2.57-4.47c-0.19-1.83,0.16-4.47,1.03-7.9l4.77-18.81c1.25-4.9,3.05-8.47,5.33-10.63c2.32-2.16,5.23-3.29,8.8-3.31c1.91-0.02,3.57,0.38,4.99,1.2c1.37,0.75,2.52,1.98,3.36,3.57l2.1-3.95L407.3,80.37z M388.28,94.24c0.58-2.37,0.83-3.88,0.73-4.54c-0.13-0.66-0.62-0.96-1.53-0.94c-0.92,0-1.65,0.38-2.21,1.13c-0.54,0.75-1.1,2.21-1.66,4.37l-4.47,17.45c-0.58,2.3-0.81,3.86-0.72,4.51c0.12,0.7,0.61,1.03,1.51,1.03c1-0.05,1.77-0.42,2.27-1.27c0.57-0.84,1.19-2.73,1.96-5.69L388.28,94.24z"/></svg>